<?xml version="1.0" encoding="UTF-8" standalone="no"?><!DOCTYPE svg PUBLIC "-//W3C//DTD SVG 1.1//EN" "http://www.w3.org/Graphics/SVG/1.1/DTD/svg11.dtd"><svg width="100%" height="100%" viewBox="0 0 200 200" version="1.1" xmlns="http://www.w3.org/2000/svg" xmlns:xlink="http://www.w3.org/1999/xlink" xml:space="preserve" xmlns:serif="http://www.serif.com/" style="fill-rule:evenodd;clip-rule:evenodd;stroke-linejoin:round;stroke-miterlimit:2;"><rect id="Favicon" x="0" y="0" width="200" height="200" style="fill:none;"/><g><path d="M74.414,45.774l17.076,-24.833c0,0 54.159,13.199 89.619,21.84c6.822,1.663 12.391,6.573 14.895,13.133c2.505,6.56 1.624,13.932 -2.354,19.718c-5.302,7.709 -11.144,16.205 -16.526,24.033c-11.345,16.498 -31.703,24.27 -51.156,19.529c-19.71,-4.803 -41.142,-10.026 -41.142,-10.026l32.873,-47.806l27.354,6.667l-15.802,22.979c0,0 6.405,1.561 11.728,2.858c4.225,1.03 8.647,-0.658 11.111,-4.242c3.354,-4.877 8.047,-11.702 11.216,-16.311c0.785,-1.141 0.959,-2.595 0.465,-3.889c-0.494,-1.294 -1.593,-2.262 -2.938,-2.59c-20.403,-4.972 -86.419,-21.06 -86.419,-21.06Z" style="fill:#f7970a;"/><path d="M2.591,149.886c0,0 17.877,-25.997 32.842,-47.76c12.064,-17.544 33.713,-25.809 54.399,-20.768c19.179,4.674 39.247,9.565 39.247,9.565l-32.841,47.759l-27.354,-6.666l15.77,-22.934c-0,0 -5.47,-1.333 -10.524,-2.565c-5.043,-1.228 -10.319,0.786 -13.26,5.062c-5.552,8.074 -13.854,20.148 -13.854,20.148l92.353,22.506l-17.071,24.826l-119.707,-29.173Z" style="fill:#26a17b;"/><path d="M84.654,109.082l17.071,-24.826l27.354,6.667l-17.071,24.825l-27.354,-6.666Z" style="fill:#4d4d4d;"/></g></svg>