<?xml version="1.0" encoding="UTF-8" standalone="no"?>
<svg
   width="4082.2827"
   height="4375.1729"
   viewBox="0 0 4082.2827 4375.1729"
   version="1.1"
   xml:space="preserve"
   style="clip-rule:evenodd;fill-rule:evenodd;stroke-linejoin:round;stroke-miterlimit:2"
   id="svg15"
   sodipodi:docname="LOGO CLARO.svg"
   inkscape:version="1.4 (1:1.4+202410161351+e7c3feb100)"
   xmlns:inkscape="http://www.inkscape.org/namespaces/inkscape"
   xmlns:sodipodi="http://sodipodi.sourceforge.net/DTD/sodipodi-0.dtd"
   xmlns="http://www.w3.org/2000/svg"
   xmlns:svg="http://www.w3.org/2000/svg"
   xmlns:serif="http://www.serif.com/"><defs
     id="defs15" /><sodipodi:namedview
     id="namedview15"
     pagecolor="#ffffff"
     bordercolor="#000000"
     borderopacity="0.25"
     inkscape:showpageshadow="2"
     inkscape:pageopacity="0.0"
     inkscape:pagecheckerboard="0"
     inkscape:deskcolor="#d1d1d1"
     inkscape:zoom="0.1638666"
     inkscape:cx="2154.1912"
     inkscape:cy="3219.0818"
     inkscape:window-width="1850"
     inkscape:window-height="1016"
     inkscape:window-x="0"
     inkscape:window-y="0"
     inkscape:window-maximized="1"
     inkscape:current-layer="g4" /><rect
     id="LOGO-CLARO"
     serif:id="LOGO CLARO"
     x="-3045.0923"
     y="-2852.7009"
     width="9953.2305"
     height="10077.3"
     style="fill:none" /><g
     id="g15"
     transform="translate(-3045.0923,-2853.345)"><g
       id="g12"><g
         transform="matrix(0.0617602,0,0,0.0625303,1579.76,4544.36)"
         id="g5"><g
           transform="matrix(1.05948,0,0,1,-1409.81,0)"
           id="g2"><text
             x="23703.5"
             y="41983.5"
             style="font-weight:700;font-size:4365.73px;font-family:Aeroport-Bold, Aeroport;fill:#f7970a"
             id="text2">T<tspan
   x="26148.199 27968.699"
   y="41983.5 41983.5"
   id="tspan1">ru</tspan>st  <tspan
   x="34817.102"
   y="41983.5"
   id="tspan2">e</tspan>d</text></g><g
           transform="matrix(1.05948,0,0,1,-2501.87,0)"
           id="g4"><g
             transform="matrix(4365.73,0,0,4365.73,83751.2,41983.5)"
             id="g3" /><text
             x="42064.699"
             y="41983.5"
             style="font-weight:700;font-size:4365.73px;font-family:Aeroport-Bold, Aeroport;fill:#f7970a"
             id="text3">Global C <tspan
   x="59599.898"
   y="41983.5"
   id="tspan3">o</tspan>nnectivity</text></g></g><g
         transform="matrix(0.987685,0,0,1,-85.3551,0)"
         id="g7"><g
           transform="matrix(506.382,0,0,506.382,7088.96,6926.29)"
           id="g6" /><text
           x="5585.0098"
           y="6926.29"
           style="font-size:506.382px;font-family:FutureTense-Regular, 'Future Tense';fill:#26a17b"
           id="text6">P2P</text></g><g
         transform="matrix(0.379743,0,0,0.362894,-7665.95,-8309.28)"
         id="g11"><g
           transform="matrix(0.943862,0,0,1,1580.27,0)"
           id="g8"><text
             x="28149.801"
             y="41983.5"
             style="font-weight:900;font-size:1395.4px;font-family:GoodTimesHv-Regular, 'Good Times', sans-serif;fill:#4d4d4d"
             id="text7">D</text></g><g
           transform="matrix(0.943862,0,0,1,1645.78,0)"
           id="g10"><g
             transform="matrix(1395.4,0,0,1395.4,34796.2,41983.5)"
             id="g9" /><text
             x="29316.699"
             y="41983.5"
             style="font-size:1395.4px;font-family:FutureTense-Regular, 'Future Tense';fill:#4d4d4d"
             id="text9">igit<tspan
   x="32408.699"
   y="41983.5"
   id="tspan9">a</tspan>l</text></g></g></g><g
       id="g14"><path
         d="m 4471.69,3344.22 337.543,-490.875 c 0,0 1070.58,260.9 1771.53,431.723 134.855,32.865 244.94,129.919 294.445,259.594 49.505,129.674 32.104,275.398 -46.542,389.769 -104.799,152.405 -220.282,320.347 -326.68,475.077 -224.251,326.117 -626.683,479.752 -1011.21,386.043 -389.622,-94.952 -813.271,-198.195 -813.271,-198.195 l 649.808,-944.987 540.718,131.773 -312.358,454.248 c 0,0 126.611,30.856 231.816,56.494 83.523,20.355 170.936,-13.016 219.646,-83.852 66.297,-96.414 159.072,-231.333 221.714,-322.43 15.511,-22.558 18.944,-51.299 9.179,-76.876 -9.764,-25.576 -31.476,-44.719 -58.074,-51.201 -403.309,-98.286 -1708.27,-416.305 -1708.27,-416.305 z"
         style="fill:#f7970a"
         id="path12" /><path
         d="m 3051.93,5402.25 c 0,0 353.372,-513.892 649.197,-944.098 238.471,-346.798 666.423,-510.174 1075.33,-410.523 379.118,92.391 775.802,189.064 775.802,189.064 l -649.181,944.076 -540.718,-131.773 311.732,-453.338 c 0,0 -108.123,-26.349 -208.034,-50.698 -99.668,-24.289 -203.978,15.533 -262.103,100.062 -109.75,159.604 -273.861,398.263 -273.861,398.263 l 1825.58,444.893 -337.45,490.739 -2366.29,-576.667 z"
         style="fill:#26a17b"
         id="path13" /><path
         d="m 4674.09,4595.66 337.45,-490.738 540.717,131.773 -337.45,490.738 z"
         style="fill:#4d4d4d"
         id="path14" /></g></g></svg>
